Coordinates
version=1
nRows=12
nColumns=28
inDegrees=yes

Units are S.I. units (second, meters, Newtons, ...)
Angles are in degrees.

endheader
time	pelvis_tilt	pelvis_list	pelvis_rotation	pelvis_tx	pelvis_ty	pelvis_tz	hip_flexion_r	hip_adduction_r	hip_rotation_r	knee_angle_r	ankle_angle_r	subtalar_angle_r	mtp_angle_r	hip_flexion_l	hip_adduction_l	hip_rotation_l	knee_angle_l	socket_flexion	socket_adduction	socket_rotation	socket_tx	socket_ty	socket_tz	foot_flex	lumbar_extension	lumbar_bending	lumbar_rotation
      0.00000000	      0.91382025	    -13.34892342	    -13.46701159	     -0.77442685	      1.00209845	      0.27184088	    -22.78728225	     11.55870967	      4.15722916	     -8.85467337	     -1.58433725	     -0.42288640	     36.34184993	     28.74048317	    -17.36490561	     11.39381630	    -23.29852540	    -11.01643065	      0.00000000	      0.00000000	      0.00000000	      0.00000000	      0.00000000	      0.24483070	    -17.26756039	     10.91876722	     18.61112455
      0.00416667	      0.91274309	    -13.38257313	    -13.43507308	     -0.76948771	      1.00120879	      0.27127229	    -22.91168803	     11.50910436	      4.25241463	     -9.11184376	     -1.64743575	     -0.41619676	     36.36597970	     28.68612552	    -17.30069082	     11.44657523	    -23.53821113	    -11.03467496	      0.00000000	      0.00000000	      0.00000000	      0.00000000	      0.00000000	     -0.00424112	    -17.26706303	     10.95447732	     18.64551820
      0.00833333	      0.92597389	    -13.40283549	    -13.43025815	     -0.76432086	      1.00032385	      0.27067829	    -23.02652467	     11.42127483	      4.29910930	     -9.43384071	     -1.70351231	     -0.44861210	     36.39720479	     28.58637885	    -17.22974956	     11.45032549	    -23.76952786	    -11.06091476	      0.00000000	      0.00000000	      0.00000000	      0.00000000	      0.00000000	     -0.29113511	    -17.28242553	     10.97880016	     18.67495473
      0.01250000	      0.94133335	    -13.39427281	    -13.42075339	     -0.75896918	      0.99945928	      0.27007171	    -23.13309156	     11.30491284	      4.34965159	     -9.77458199	     -1.76411518	     -0.49002083	     36.42904233	     28.47153643	    -17.12839635	     11.43461480	    -23.99171974	    -11.07498578	      0.00000000	      0.00000000	      0.00000000	      0.00000000	      0.00000000	     -0.57553118	    -17.29026404	     10.97239578	     18.69474805
      0.01666667	      0.96740369	    -13.37152116	    -13.42764166	     -0.75346445	      0.99861023	      0.26950970	    -23.22882808	     11.16767431	      4.37593513	    -10.16501007	     -1.83113230	     -0.55510577	     36.46884944	     28.32203699	    -17.01972733	     11.39190861	    -24.20434982	    -11.09546542	      0.00000000	      0.00000000	      0.00000000	      0.00000000	      0.00000000	     -0.87118550	    -17.30349552	     10.93843302	     18.71234399
      0.02083333	      0.99423293	    -13.33643820	    -13.42537425	     -0.74779456	      0.99775735	      0.26890835	    -23.32376464	     11.01622612	      4.41285211	    -10.56204135	     -1.90858966	     -0.62265843	     36.51145536	     28.16574119	    -16.89201337	     11.34377804	    -24.42519917	    -11.11100996	      0.00000000	      0.00000000	      0.00000000	      0.00000000	      0.00000000	     -1.14846375	    -17.30687557	     10.89000020	     18.72703332
      0.02500000	      1.29947753	    -13.15928801	    -13.48741204	     -0.74199573	      0.99742740	      0.26859998	    -23.65434216	     10.62051333	      4.35516422	    -11.00184377	     -2.01299559	     -0.82861551	     37.05751613	     27.58620160	    -16.65856291	     10.89459306	    -24.49007256	    -11.10813094	      0.00000000	      0.00000000	      0.00000000	      0.00000000	      0.00000000	     -1.44358664	    -17.56518406	     10.53838359	     18.92596775
      0.02916667	      1.29757268	    -13.13243129	    -13.50505738	     -0.73617913	      0.99662506	      0.26797728	    -23.67891936	     10.47568474	      4.36262835	    -11.47970495	     -2.23010437	     -0.91836833	     37.17855636	     27.41992765	    -16.54285076	     10.92886288	    -24.69081168	    -11.12244303	      0.00000000	      0.00000000	      0.00000000	      0.00000000	      0.00000000	     -1.68121213	    -17.55847751	     10.52497993	     18.89009071
      0.03333333	      1.27836745	    -13.08223564	    -13.44056529	     -0.73024397	      0.99578261	      0.26728290	    -23.73991695	     10.36186055	      4.49122390	    -11.84610601	     -2.34611213	     -0.94706103	     37.20475926	     27.31910294	    -16.36685412	     10.96311040	    -24.93308636	    -11.13630381	      0.00000000	      0.00000000	      0.00000000	      0.00000000	      0.00000000	     -1.90791216	    -17.49057109	     10.49289301	     18.87723207
      0.03750000	      1.24523158	    -13.06769116	    -13.38168926	     -0.72404617	      0.99502911	      0.26661211	    -23.83710122	     10.27554385	      4.58365491	    -12.13908972	     -2.42444707	     -0.96460729	     37.21081415	     27.17558319	    -16.23921551	     10.98701976	    -25.12326674	    -11.13994100	      0.00000000	      0.00000000	      0.00000000	      0.00000000	      0.00000000	     -2.02976390	    -17.34339987	     10.52421175	     18.87137107
      0.04166667	      1.24120882	    -12.93108321	    -13.38806061	     -0.71834210	      0.99432629	      0.26596072	    -23.70377860	     10.04883798	      4.58940282	    -12.84700560	     -2.73801842	     -1.15194323	     37.21899089	     27.05720286	    -16.00049154	     10.95501686	    -25.40230561	    -11.17093562	      0.00000000	      0.00000000	      0.00000000	      0.00000000	      0.00000000	     -2.42984796	    -17.36796694	     10.34035147	     18.80657483
      0.04583333	      1.20911583	    -12.90714028	    -13.31219204	     -0.71201709	      0.99369262	      0.26529418	    -23.79321700	      9.96672329	      4.68266826	    -13.13986223	     -2.82040739	     -1.17541089	     37.22336576	     26.89524872	    -15.85788284	     10.96739623	    -25.58182025	    -11.16622209	      0.00000000	      0.00000000	      0.00000000	      0.00000000	      0.00000000	     -2.50800893	    -17.19281241	     10.37764349	     18.80116644
